# xmcd
#
# Track frame offsets: 
#        150
#        16517
#        37088
#        47988
#        70715
#        90846
#        106659
#        121151
#        144206
#        160126
#
# Disc length: 2334 seconds
#
# Revision: 2
# Processed by: cddbd v1.5.2PL0 Copyright (c) Steve Scherf et al.
# Submitted via: ExactAudioCopy v0.99pb4
#
DISCID=6c091c0a
DTITLE=Kenny Neal - A Tribute To Slim Harpo and Raful Neal
DYEAR=2005
DGENRE=Blues
TTITLE0=Rainin' In My Heart
TTITLE1=What A Dream
TTITLE2=Swamp Boogie
TTITLE3=Late Last Nite
TTITLE4=King Bee
TTITLE5=Te-Ni-Ne-Ni-Nu
TTITLE6=Scratch My Back
TTITLE7=Baby Bee
TTITLE8=Worry, Worrin'
TTITLE9=Got Love If You Want It
EXTD=
EXTT0=
EXTT1=
EXTT2=
EXTT3=
EXTT4=
EXTT5=
EXTT6=
EXTT7=
EXTT8=
EXTT9=
PLAYORDER=
